<?xml version="1.0" standalone="no"?>
<!DOCTYPE svg PUBLIC "-//W3C//DTD SVG 20010904//EN"
 "http://www.w3.org/TR/2001/REC-SVG-20010904/DTD/svg10.dtd">
<svg version="1.0" xmlns="http://www.w3.org/2000/svg"
 width="260.000000pt" height="260.000000pt" viewBox="0 0 260.000000 260.000000"
 preserveAspectRatio="xMidYMid meet">
<metadata>
Created by potrace 1.11, written by Peter Selinger 2001-2013
</metadata>
<g transform="translate(0.000000,260.000000) scale(0.100000,-0.100000)"
fill="#000000" stroke="none">
<path d="M0 1300 l0 -1300 130 0 c80 0 130 4 130 10 0 6 7 10 15 10 8 0 15 6
15 14 0 8 11 17 25 20 14 4 25 11 25 16 0 6 7 10 15 10 8 0 15 4 15 9 0 5 18
11 40 15 22 3 40 11 40 16 0 6 37 10 90 10 53 0 90 -4 90 -10 0 -5 14 -10 30
-10 17 0 30 5 30 10 0 6 16 10 35 10 19 0 35 4 35 9 0 5 14 12 30 16 17 4 30
11 30 16 0 5 11 9 25 9 16 0 25 6 25 15 0 11 11 15 40 15 38 0 39 -1 34 -30
-8 -36 3 -100 16 -100 6 0 10 16 10 36 0 19 7 42 15 50 12 13 15 49 15 200 l0
184 49 0 c34 0 51 4 55 15 3 8 12 15 21 15 9 0 26 11 39 25 13 14 28 25 35 25
6 0 11 5 11 11 0 14 25 39 39 39 6 0 11 5 11 11 0 14 55 69 69 69 6 0 11 11
11 24 0 13 7 26 15 30 8 3 15 15 15 26 0 11 5 20 10 20 6 0 10 7 10 15 0 8 7
15 15 15 9 0 15 9 15 25 0 14 5 25 10 25 6 0 10 7 10 15 0 8 7 15 15 15 9 0
15 9 15 25 0 16 -6 25 -15 25 -8 0 -15 -4 -15 -10 0 -5 -6 -10 -13 -10 -7 0
-24 -11 -39 -25 -15 -14 -32 -25 -38 -25 -5 0 -10 -7 -10 -15 0 -8 -7 -15 -15
-15 -8 0 -15 -4 -15 -10 0 -5 -11 -12 -25 -16 -14 -3 -25 -10 -25 -15 0 -5 -7
-9 -15 -9 -8 0 -15 -7 -15 -15 0 -9 -9 -15 -25 -15 -16 0 -25 -6 -25 -15 0 -8
-7 -15 -15 -15 -8 0 -15 -4 -15 -10 0 -5 -11 -10 -25 -10 -14 0 -25 -4 -25
-10 0 -5 -11 -12 -25 -16 -14 -3 -25 -10 -25 -14 0 -4 -18 -10 -40 -14 -22 -3
-40 -11 -40 -16 0 -6 -22 -10 -49 -10 -29 0 -51 -5 -53 -12 -3 -7 -31 -14 -69
-16 -51 -3 -69 0 -82 12 -8 9 -20 16 -26 16 -6 0 -11 4 -11 9 0 5 -10 13 -21
16 -12 4 -43 29 -70 56 -27 27 -51 49 -55 49 -3 0 -23 18 -45 40 -22 22 -46
40 -54 40 -8 0 -15 7 -15 15 0 8 -4 15 -9 15 -5 0 -13 10 -17 23 -4 12 -17 32
-30 44 -13 12 -24 30 -24 39 0 9 -11 27 -25 40 -14 13 -25 32 -25 44 0 11 -4
20 -10 20 -5 0 -12 11 -16 25 -3 14 -10 25 -15 25 -5 0 -9 11 -9 24 0 14 -7
31 -15 40 -8 8 -15 30 -15 49 0 20 -5 37 -12 39 -24 8 -21 448 3 448 5 0 9
-11 9 -25 0 -20 5 -25 26 -25 14 0 32 -7 40 -15 9 -8 26 -15 40 -15 13 0 24
-4 24 -10 0 -5 23 -10 50 -10 28 0 50 5 50 10 0 6 14 10 30 10 23 0 30 4 30
20 0 23 33 60 54 60 29 0 34 54 9 97 -11 21 -14 38 -8 59 4 16 10 23 12 17 3
-7 11 -13 18 -13 7 0 15 -7 19 -15 3 -8 17 -15 31 -15 20 0 25 5 25 25 0 14 5
25 10 25 6 0 10 7 10 15 0 8 7 15 15 15 9 0 15 -9 15 -25 0 -20 5 -25 25 -25
14 0 25 5 25 10 0 14 28 12 33 -2 3 -10 9 -10 28 -1 24 13 50 18 79 15 15 -2
40 -82 40 -130 0 -15 6 -22 19 -22 17 0 19 8 17 93 l-1 92 115 -3 c63 -2 117
-7 120 -11 3 -4 20 -11 38 -14 38 -8 56 -23 66 -55 5 -16 3 -24 -8 -28 -17 -7
-22 -44 -6 -44 6 0 10 -7 10 -15 0 -10 -10 -15 -32 -15 -18 0 -42 -7 -52 -15
-29 -22 -278 -21 -300 0 -8 8 -19 15 -25 15 -16 0 -13 -26 4 -44 8 -8 15 -24
15 -35 0 -14 8 -23 25 -27 14 -3 25 -10 25 -14 0 -5 14 -11 30 -15 17 -4 30
-11 30 -16 0 -5 23 -9 50 -9 28 0 50 4 50 9 0 5 22 12 50 16 27 4 50 10 50 15
0 4 23 10 52 12 29 3 54 11 56 17 2 6 14 11 27 11 16 0 25 7 29 25 4 14 11 25
16 25 6 0 10 5 10 11 0 6 6 17 14 25 8 7 17 19 20 26 5 10 7 10 12 1 3 -7 12
-13 20 -13 8 0 14 -4 14 -10 0 -5 11 -10 25 -10 l25 0 0 -105 c0 -58 4 -105 9
-105 5 0 12 -11 15 -25 4 -14 11 -25 16 -25 6 0 10 -7 10 -15 0 -8 7 -15 15
-15 8 0 15 -7 15 -15 0 -10 10 -15 29 -15 17 0 32 -4 35 -9 3 -5 30 -12 60
-15 46 -6 55 -11 58 -29 3 -18 8 -21 37 -19 18 2 43 12 54 23 28 25 53 32 74
20 10 -6 12 -11 6 -11 -7 0 -13 -4 -13 -10 0 -15 -84 -97 -108 -104 -12 -4
-22 -11 -22 -16 0 -5 -24 -10 -52 -12 -46 -3 -53 -6 -56 -25 -2 -13 -10 -23
-18 -23 -8 0 -14 -5 -14 -10 0 -6 -34 -44 -75 -85 -45 -44 -75 -82 -75 -94 0
-12 5 -21 10 -21 6 0 10 5 10 10 0 6 8 10 19 10 10 0 24 7 31 15 27 33 40 17
40 -50 0 -37 4 -65 10 -65 6 0 10 -38 10 -95 0 -54 4 -95 10 -95 5 0 12 -22
16 -50 4 -27 10 -50 15 -50 5 0 9 -16 9 -36 0 -19 7 -42 15 -50 8 -9 15 -24
15 -35 0 -10 5 -19 10 -19 6 0 10 -9 10 -20 0 -11 7 -23 15 -26 8 -4 15 -10
15 -16 0 -5 6 -16 13 -23 29 -33 37 -45 37 -55 0 -5 7 -10 15 -10 8 0 15 -7
15 -15 0 -8 4 -15 10 -15 5 0 12 -11 16 -25 3 -14 11 -25 16 -25 12 0 38 -26
38 -38 0 -5 11 -13 25 -16 14 -4 25 -11 25 -16 0 -6 7 -10 15 -10 8 0 15 -5
15 -11 0 -14 25 -39 39 -39 6 0 11 -7 11 -15 0 -8 7 -15 15 -15 8 0 15 -4 15
-9 0 -5 11 -12 25 -15 14 -4 25 -11 25 -16 0 -6 11 -10 25 -10 40 0 29 -17
-15 -24 -22 -3 -40 -11 -40 -16 0 -6 -18 -10 -39 -10 -22 0 -46 -7 -55 -15 -8
-8 -19 -15 -25 -15 -6 0 -11 -4 -11 -9 0 -5 -11 -12 -25 -15 -50 -13 -24 -26
50 -26 41 0 75 4 75 9 0 6 20 13 45 17 25 3 45 10 45 15 0 5 34 9 75 9 41 0
75 -4 75 -9 0 -5 25 -12 55 -16 30 -3 55 -11 55 -16 0 -5 29 -9 65 -9 l65 0 0
655 0 655 -25 0 c-16 0 -25 6 -25 15 0 8 5 15 10 15 6 0 10 7 10 15 0 8 7 15
15 15 13 0 15 52 15 405 0 353 -2 405 -15 405 -12 0 -15 15 -15 76 0 96 -16
120 -55 78 -14 -15 -25 -33 -25 -40 0 -8 -4 -14 -10 -14 -5 0 -10 -9 -10 -19
0 -33 -11 -51 -31 -51 -10 0 -19 6 -19 14 0 8 -7 22 -16 30 -16 16 -11 56 7
56 5 0 9 21 9 46 0 28 6 51 14 58 18 14 10 76 -10 76 -8 0 -14 7 -14 15 0 8 7
15 15 15 8 0 15 -4 15 -9 0 -5 14 -12 30 -16 17 -4 30 -11 30 -16 0 -5 8 -9
19 -9 10 0 27 -11 37 -25 35 -46 44 -33 44 65 l0 90 -260 0 c-167 0 -260 -4
-260 -10 0 -5 -18 -10 -40 -10 -22 0 -40 5 -40 10 0 6 -63 10 -169 10 l-169 0
-7 -80 c-5 -56 -11 -80 -20 -80 -8 0 -15 -8 -18 -17 -2 -10 -4 -7 -4 7 1 14
-3 58 -7 98 l-9 72 -288 0 c-306 0 -297 1 -290 -42 0 -5 -4 -8 -9 -8 -6 0 -10
11 -10 25 0 16 -6 25 -15 25 -9 0 -15 -9 -15 -24 0 -13 -7 -26 -15 -30 -8 -3
-15 -15 -15 -26 0 -11 -4 -20 -10 -20 -5 0 -10 23 -10 50 l0 50 -330 0 c-287
0 -330 -2 -330 -15 0 -8 -5 -15 -10 -15 -6 0 -13 7 -16 15 -5 12 -28 15 -120
15 l-114 0 0 -1300z m2280 1195 c0 -16 6 -25 15 -25 8 0 15 -7 15 -15 0 -8 7
-15 15 -15 8 0 15 -7 15 -15 0 -8 5 -15 10 -15 15 0 13 -127 -2 -134 -10 -5
-10 -7 0 -12 6 -3 12 -17 12 -30 0 -14 7 -27 15 -30 9 -4 15 -19 15 -36 0 -16
-7 -36 -15 -44 -8 -9 -15 -24 -15 -35 0 -10 -4 -19 -9 -19 -5 0 -13 -10 -17
-22 -9 -28 -33 -53 -42 -43 -4 4 -1 10 6 12 18 7 16 150 -2 169 -8 8 -19 14
-25 14 -6 0 -11 7 -11 15 0 8 -5 15 -11 15 -14 0 -39 -25 -39 -39 0 -15 -27
-14 -33 2 -8 19 -27 -13 -27 -45 0 -16 -4 -28 -10 -28 -6 0 -10 29 -10 68 0
74 -13 108 -30 82 -9 -13 -11 -13 -20 0 -14 22 -12 40 5 40 12 0 15 16 15 80
0 85 15 108 26 40 4 -22 10 -40 15 -40 5 0 9 -24 9 -52 0 -75 12 -90 44 -55
16 18 35 27 54 27 18 0 32 6 36 16 9 22 -5 144 -15 144 -5 0 -9 11 -9 25 0 14
5 25 10 25 6 0 10 -11 10 -25z m-1890 -20 c0 -14 -4 -25 -10 -25 -5 0 -10 11
-10 25 0 14 5 25 10 25 6 0 10 -11 10 -25z m1556 8 c3 -10 10 -26 15 -35 5
-10 9 -79 9 -153 0 -113 -2 -135 -15 -135 -13 0 -15 21 -15 130 0 80 -4 130
-10 130 -5 0 -10 18 -10 40 0 41 16 55 26 23z m-1039 -50 c-3 -10 -5 -4 -5 12
0 17 2 24 5 18 2 -7 2 -21 0 -30z m1113 -3 c0 -5 -4 -10 -10 -10 -5 0 -10 5
-10 10 0 6 5 10 10 10 6 0 10 -4 10 -10z m-1600 -30 c0 -5 -4 -10 -10 -10 -5
0 -10 5 -10 10 0 6 5 10 10 10 6 0 10 -4 10 -10z m470 -20 c0 -5 -4 -10 -10
-10 -5 0 -10 5 -10 10 0 6 5 10 10 10 6 0 10 -4 10 -10z m1158 -120 c-2 -97
-6 -130 -15 -130 -7 0 -13 -7 -13 -15 0 -8 -4 -15 -10 -15 -14 0 -12 28 3 33
15 5 12 150 -3 155 -14 5 -12 70 3 87 6 8 18 14 25 15 11 0 13 -27 10 -130z
m-448 60 c0 -5 -4 -10 -10 -10 -5 0 -10 5 -10 10 0 6 5 10 10 10 6 0 10 -4 10
-10z m500 -140 c0 -16 -4 -30 -10 -30 -5 0 -10 14 -10 30 0 17 5 30 10 30 6 0
10 -13 10 -30z m-710 -40 c0 -5 -4 -10 -10 -10 -5 0 -10 5 -10 10 0 6 5 10 10
10 6 0 10 -4 10 -10z m-978 -118 l56 -4 7 -70 c6 -62 5 -71 -13 -89 -12 -10
-30 -19 -42 -19 -11 0 -20 -5 -20 -11 0 -7 -12 -9 -35 -5 -19 3 -51 9 -71 12
l-36 6 4 74 c3 66 6 75 33 98 18 16 36 23 45 20 8 -4 40 -9 72 -12z m-172
-142 c0 -5 -7 -10 -15 -10 -8 0 -15 5 -15 10 0 6 7 10 15 10 8 0 15 -4 15 -10z
m1960 -190 c0 -5 18 -10 40 -10 29 0 40 -4 40 -15 0 -8 5 -15 10 -15 6 0 20
-9 31 -19 15 -13 17 -21 9 -26 -7 -4 -16 -1 -21 6 -4 7 -12 10 -16 5 -4 -5 -2
-11 5 -13 6 -3 12 -16 12 -29 0 -15 6 -24 15 -24 8 0 15 -8 15 -17 0 -9 6 -24
14 -32 24 -26 24 -151 1 -175 -8 -8 -15 -19 -15 -25 0 -6 -7 -11 -15 -11 -10
0 -15 11 -15 35 0 19 5 35 10 35 6 0 10 25 10 55 0 30 -4 55 -10 55 -5 0 -10
12 -10 26 0 26 -20 54 -39 54 -6 0 -11 7 -11 15 0 8 -7 15 -15 15 -8 0 -15 5
-15 10 0 6 -11 10 -25 10 -14 0 -25 4 -25 9 0 16 -72 20 -108 6 -49 -21 -255
-21 -276 0 -8 8 -19 15 -25 15 -6 0 -11 4 -11 8 0 5 75 12 167 15 100 4 169
11 171 17 2 5 15 10 28 10 13 0 24 5 24 10 0 6 11 10 25 10 14 0 25 -4 25 -10z"/>
<path d="M480 1534 c0 -8 5 -12 10 -9 6 4 8 11 5 16 -9 14 -15 11 -15 -7z"/>
<path d="M450 1510 c0 -5 -7 -10 -15 -10 -8 0 -15 -7 -15 -15 0 -8 -7 -15 -16
-15 -11 0 -14 -6 -8 -22 3 -13 11 -24 15 -26 5 -2 9 -14 9 -27 0 -24 17 -35
56 -35 27 0 30 16 9 44 -9 11 -15 41 -15 68 0 26 -4 48 -10 48 -5 0 -10 -4
-10 -10z"/>
<path d="M580 1395 c0 -22 4 -25 35 -25 41 0 43 6 13 31 -29 26 -48 24 -48 -6z"/>
<path d="M480 1145 c0 -8 5 -15 10 -15 6 0 10 -7 10 -15 0 -9 9 -15 25 -15 14
0 25 -4 25 -10 0 -5 11 -10 25 -10 16 0 25 -6 25 -15 0 -11 11 -15 40 -15 22
0 40 5 40 10 0 6 14 10 30 10 17 0 30 -4 30 -10 0 -5 18 -10 40 -10 22 0 40
-4 40 -10 0 -5 11 -12 25 -16 14 -3 25 -10 25 -15 0 -5 5 -9 10 -9 6 0 10 11
10 25 0 20 -5 25 -25 25 -16 0 -25 6 -25 15 0 9 -9 15 -25 15 -14 0 -25 4 -25
9 0 5 -13 12 -30 16 -16 4 -30 11 -30 16 0 5 -40 9 -89 9 -49 0 -91 4 -93 8
-1 5 -18 12 -35 15 -25 5 -33 3 -33 -8z"/>
<path d="M470 1044 c0 -12 72 -74 86 -74 8 0 14 -4 14 -9 0 -5 18 -12 41 -16
49 -8 199 4 199 16 0 5 -39 9 -86 9 -63 0 -89 4 -100 15 -9 8 -27 15 -41 15
-15 0 -36 11 -49 25 -21 22 -64 35 -64 19z"/>
</g>
</svg>
